<?xml version="1.0" standalone="no"?>
<!DOCTYPE svg PUBLIC "-//W3C//DTD SVG 20010904//EN"
 "http://www.w3.org/TR/2001/REC-SVG-20010904/DTD/svg10.dtd">
<svg version="1.0" xmlns="http://www.w3.org/2000/svg"
 width="256.000000pt" height="256.000000pt" viewBox="0 0 256.000000 256.000000"
 preserveAspectRatio="xMidYMid meet">
<metadata>
Created by potrace 1.14, written by Peter Selinger 2001-2017
</metadata>
<g transform="translate(0.000000,256.000000) scale(0.100000,-0.100000)"
fill="#000000" stroke="none">
<path d="M975 2536 c-132 -18 -161 -30 -169 -68 -3 -17 -6 -42 -6 -56 0 -35
-69 -172 -86 -172 -8 0 -14 -4 -14 -9 0 -5 -12 -14 -27 -20 -16 -7 -41 -19
-57 -27 -27 -16 -29 -15 -65 19 -38 36 -211 166 -249 186 -12 6 -63 41 -112
76 -91 66 -116 76 -126 51 -7 -17 261 -383 337 -461 l48 -50 3 -390 c3 -319 7
-400 20 -443 l16 -54 -52 51 c-53 52 -135 91 -192 91 -25 0 -26 -2 -20 -38 15
-93 24 -107 141 -221 63 -62 115 -115 115 -118 0 -2 -19 -23 -43 -45 -23 -22
-77 -74 -119 -116 l-78 -76 -28 21 c-16 12 -35 23 -43 24 -22 4 -49 -12 -49
-28 0 -28 -61 -130 -91 -152 -37 -28 -37 -54 1 -91 16 -16 30 -36 30 -44 0
-14 47 -55 100 -87 36 -23 119 -49 152 -49 16 0 27 -4 24 -9 -8 -12 43 -61 74
-73 49 -19 198 -60 375 -104 153 -39 195 -45 280 -45 55 0 213 -1 350 -2 225
-1 261 1 364 21 129 26 165 41 201 83 22 26 37 31 140 48 63 11 135 27 160 36
64 22 164 79 227 128 53 41 53 42 53 96 0 46 -4 59 -27 83 -15 16 -41 54 -58
86 -23 44 -35 57 -52 56 -17 0 -25 8 -34 33 -14 44 -22 47 -50 20 -38 -37
-112 -85 -139 -92 -22 -5 -43 13 -168 138 l-143 143 114 112 c98 97 116 120
130 166 24 76 23 96 -8 96 -45 0 -138 -39 -173 -72 -25 -23 -32 -27 -26 -13 5
11 10 207 12 435 l3 414 52 57 c47 50 107 129 265 348 51 71 60 101 27 101 -8
0 -55 -28 -103 -63 -48 -35 -101 -72 -119 -82 -60 -38 -198 -140 -239 -177
l-41 -37 -60 43 c-33 25 -69 57 -80 73 -20 29 -39 93 -50 167 -6 48 -12 52
-78 65 -153 30 -391 38 -540 17z m-248 -1887 c101 -99 113 -108 178 -128 83
-26 101 -18 85 39 -19 65 -12 66 82 19 23 -11 94 -30 138 -36 26 -3 53 5 105
31 38 19 71 33 73 31 2 -2 -1 -20 -7 -41 -17 -61 -1 -69 83 -43 62 19 77 31
178 128 61 58 114 106 117 106 13 0 271 -250 271 -262 0 -22 -16 -14 -28 12
-14 29 -45 33 -98 10 -19 -8 -37 -14 -39 -14 -3 0 -42 -11 -88 -24 -190 -55
-236 -62 -397 -61 -289 1 -631 39 -740 82 -14 5 -50 17 -80 27 -30 10 -59 22
-64 26 -6 5 -19 9 -30 9 -53 1 -46 16 46 108 51 51 96 91 100 90 4 -2 56 -51
115 -109z"/>
</g>
</svg>
